<?xml version="1.0" standalone="no"?>
<!DOCTYPE svg PUBLIC "-//W3C//DTD SVG 20010904//EN"
 "http://www.w3.org/TR/2001/REC-SVG-20010904/DTD/svg10.dtd">
<svg version="1.0" xmlns="http://www.w3.org/2000/svg"
 width="64.000000pt" height="64.000000pt" viewBox="0 0 64.000000 64.000000"
 preserveAspectRatio="xMidYMid meet">
<metadata>
Created by potrace 1.10, written by Peter Selinger 2001-2011
</metadata>
<g transform="translate(0.000000,64.000000) scale(0.100000,-0.100000)"
fill="#000000" stroke="none">
<path d="M264 630 c-62 -9 -146 -53 -181 -95 -40 -46 -75 -130 -71 -167 4 -32
5 -31 36 34 46 98 84 135 179 179 44 21 84 43 88 49 3 5 5 9 3 9 -2 -1 -26 -5
-54 -9z"/>
<path d="M330 625 c0 -3 35 -22 78 -42 l77 -38 -40 -3 c-58 -4 -134 -31 -181
-63 -64 -43 -132 -140 -139 -197 -8 -61 -25 -104 -39 -99 -6 2 -24 30 -41 63
l-29 59 -4 -34 c-5 -44 47 -150 91 -187 50 -42 131 -76 174 -72 l38 3 -40 18
c-135 63 -144 71 -113 104 16 17 33 23 62 23 27 0 59 10 92 30 55 31 182 161
217 222 12 21 24 38 27 38 3 0 19 -28 35 -62 l30 -63 3 38 c4 43 -30 124 -72
174 -35 42 -138 93 -188 93 -21 0 -38 -2 -38 -5z m175 -141 c21 -9 19 -24 -10
-67 -22 -32 -31 -37 -65 -37 -23 0 -40 -5 -40 -11 0 -7 12 -10 30 -7 17 3 30
2 30 -2 0 -16 -27 -30 -59 -30 -26 0 -32 -3 -21 -9 8 -6 18 -7 22 -5 4 3 8 1
8 -5 0 -18 -83 -81 -107 -81 -13 0 -22 -5 -20 -12 1 -9 -13 -14 -40 -16 -24
-2 -43 1 -43 7 0 24 144 170 199 201 9 4 13 12 9 15 -11 11 -102 -60 -157
-122 -28 -31 -63 -80 -78 -109 -15 -30 -31 -54 -35 -54 -13 0 -9 17 13 55 12
19 22 55 23 79 2 50 29 98 51 90 11 -5 15 1 15 18 0 14 12 35 26 49 l25 24
-10 -28 c-14 -35 -14 -47 -1 -47 6 0 10 9 10 21 0 23 18 60 34 71 20 14 27 8
16 -11 -6 -11 -6 -22 -1 -25 5 -3 14 7 21 24 7 16 19 31 28 34 19 5 104 -2
127 -10z"/>
<path d="M598 258 c-16 -31 -28 -60 -28 -64 0 -4 -16 -26 -35 -50 -24 -29 -61
-55 -117 -84 -106 -53 -111 -58 -44 -49 69 9 149 52 187 100 43 54 71 123 67
167 l-3 37 -27 -57z"/>
</g>
</svg>
